TITLE ""
FILE "Disc1Track12.mp3" MP3
  TRACK 01 AUDIO
    TITLE "Disc1Track12_01"
    INDEX 01 00:00:00
  TRACK 02 AUDIO
    TITLE "Disc1Track12_02"
    INDEX 01 00:01:22
  TRACK 03 AUDIO
    TITLE "Disc1Track12_03"
    INDEX 01 00:02:54
  TRACK 04 AUDIO
    TITLE "Disc1Track12_04"
    INDEX 01 00:04:10
  TRACK 05 AUDIO
    TITLE "Disc1Track12_05"
    INDEX 01 00:08:49
  TRACK 06 AUDIO
    TITLE "Disc1Track12_06"
    INDEX 01 00:09:03
  TRACK 07 AUDIO
    TITLE "Disc1Track12_07"
    INDEX 01 00:10:28
  TRACK 08 AUDIO
    TITLE "Disc1Track12_08"
    INDEX 01 00:12:51
  TRACK 09 AUDIO
    TITLE "Disc1Track12_09"
    INDEX 01 00:13:74
  TRACK 10 AUDIO
    TITLE "Disc1Track12_10"
    INDEX 01 00:18:14
  TRACK 11 AUDIO
    TITLE "Disc1Track12_11"
    INDEX 01 00:18:47
  TRACK 12 AUDIO
    TITLE "Disc1Track12_12"
    INDEX 01 00:20:05
  TRACK 13 AUDIO
    TITLE "Disc1Track12_13"
    INDEX 01 00:23:31
  TRACK 14 AUDIO
    TITLE "Disc1Track12_14"
    INDEX 01 00:24:62
  TRACK 15 AUDIO
    TITLE "Disc1Track12_15"
    INDEX 01 00:29:49
  TRACK 16 AUDIO
    TITLE "Disc1Track12_16"
    INDEX 01 00:30:07
  TRACK 17 AUDIO
    TITLE "Disc1Track12_17"
    INDEX 01 00:31:28
  TRACK 18 AUDIO
    TITLE "Disc1Track12_18"
    INDEX 01 00:34:21
  TRACK 19 AUDIO
    TITLE "Disc1Track12_19"
    INDEX 01 00:35:42
  TRACK 20 AUDIO
    TITLE "Disc1Track12_20"
    INDEX 01 00:39:65
  TRACK 21 AUDIO
    TITLE "Disc1Track12_21"
    INDEX 01 00:40:20
  TRACK 22 AUDIO
    TITLE "Disc1Track12_22"
    INDEX 01 00:41:50
  TRACK 23 AUDIO
    TITLE "Disc1Track12_23"
    INDEX 01 00:42:60
  TRACK 24 AUDIO
    TITLE "Disc1Track12_24"
    INDEX 01 00:44:15
  TRACK 25 AUDIO
    TITLE "Disc1Track12_25"
    INDEX 01 00:48:13
  TRACK 26 AUDIO
    TITLE "Disc1Track12_26"
    INDEX 01 00:48:45
  TRACK 27 AUDIO
    TITLE "Disc1Track12_27"
    INDEX 01 00:49:71
  TRACK 28 AUDIO
    TITLE "Disc1Track12_28"
    INDEX 01 00:51:61
  TRACK 29 AUDIO
    TITLE "Disc1Track12_29"
    INDEX 01 00:53:12
  TRACK 30 AUDIO
    TITLE "Disc1Track12_30"
    INDEX 01 00:56:19
  TRACK 31 AUDIO
    TITLE "Disc1Track12_31"
    INDEX 01 00:56:52
  TRACK 32 AUDIO
    TITLE "Disc1Track12_32"
    INDEX 01 00:57:69
  TRACK 33 AUDIO
    TITLE "Disc1Track12_33"
    INDEX 01 01:00:36
  TRACK 34 AUDIO
    TITLE "Disc1Track12_34"
    INDEX 01 01:01:53
  TRACK 35 AUDIO
    TITLE "Disc1Track12_35"
    INDEX 01 01:06:48
  TRACK 36 AUDIO
    TITLE "Disc1Track12_36"
    INDEX 01 01:07:07
  TRACK 37 AUDIO
    TITLE "Disc1Track12_37"
    INDEX 01 01:08:24
  TRACK 38 AUDIO
    TITLE "Disc1Track12_38"
    INDEX 01 01:09:35
  TRACK 39 AUDIO
    TITLE "Disc1Track12_39"
    INDEX 01 01:10:52
  TRACK 40 AUDIO
    TITLE "Disc1Track12_40"
    INDEX 01 01:15:34
  TRACK 41 AUDIO
    TITLE "Disc1Track12_41"
    INDEX 01 01:15:65
  TRACK 42 AUDIO
    TITLE "Disc1Track12_42"
    INDEX 01 01:17:19
  TRACK 43 AUDIO
    TITLE "Disc1Track12_43"
    INDEX 01 01:18:10
  TRACK 44 AUDIO
    TITLE "Disc1Track12_44"
    INDEX 01 01:19:39
  TRACK 45 AUDIO
    TITLE "Disc1Track12_45"
    INDEX 01 01:21:58
  TRACK 46 AUDIO
    TITLE "Disc1Track12_46"
    INDEX 01 01:22:14
  TRACK 47 AUDIO
    TITLE "Disc1Track12_47"
    INDEX 01 01:23:39
  TRACK 48 AUDIO
    TITLE "Disc1Track12_48"
    INDEX 01 01:24:52
  TRACK 49 AUDIO
    TITLE "Disc1Track12_49"
    INDEX 01 01:26:02
  TRACK 50 AUDIO
    TITLE "Disc1Track12_50"
    INDEX 01 01:27:74
  TRACK 51 AUDIO
    TITLE "Disc1Track12_51"
    INDEX 01 01:28:32
  TRACK 52 AUDIO
    TITLE "Disc1Track12_52"
    INDEX 01 01:29:59
  TRACK 53 AUDIO
    TITLE "Disc1Track12_53"
    INDEX 01 01:30:74
  TRACK 54 AUDIO
    TITLE "Disc1Track12_54"
    INDEX 01 01:32:28
